HIERARCHY
ROOT Hips
{
	OFFSET	0.00	0.00	0.00
	CHANNELS 6 Xposition Yposition Zposition Zrotation Xrotation Yrotation
	JOINT Spine
	{
		OFFSET	 0.00	0.01	 0.00
		CHANNELS 3 Zrotation Xrotation Yrotation
		JOINT Spine1
		{
			OFFSET	 0.00	 2.45913012437421	 0.00
			CHANNELS 3 Zrotation Xrotation Yrotation
            JOINT Neck
            {
                OFFSET	 0.00	 2.48462964506057	 0.00
                CHANNELS 3 Zrotation Xrotation Yrotation
                JOINT Head
                {
                    OFFSET	 0.00	 0.927524780924562	 0.00
                    CHANNELS 3 Zrotation Xrotation Yrotation
                    End Site 
                    {
                        OFFSET	 0.00	 1.14999962169752	 0.00
                    }
                }
            }
			JOINT LeftShoulder
			{
				OFFSET	 0.00	 2.48462964506057	 0.00
				CHANNELS 3 Zrotation Xrotation Yrotation
				JOINT LeftUpArm
				{
					OFFSET	 0.00	 1.24881979654096	 0.00
					CHANNELS 3 Zrotation Xrotation Yrotation
					JOINT LeftForeArm
					{
						OFFSET	 0.00	2.59758046908119	 0.00
						CHANNELS 3 Zrotation Xrotation Yrotation
						JOINT LeftHand
						{
							OFFSET	 0.00	2.45542024364365	 0.00
							CHANNELS 3 Zrotation Xrotation Yrotation
							JOINT LeftHandThumb 
							{
								OFFSET	 0.00	0.00	 0.00
								CHANNELS 3 Zrotation Xrotation Yrotation
								End Site
								{
									OFFSET	 0.00	0.00	1.00000003353624
								}
							}
							JOINT L_Wrist_End 
							{
								OFFSET	 0.00	0.99999967115358	 0.00
								CHANNELS 3 Zrotation Xrotation Yrotation
								End Site 
								{
									OFFSET	 0.00	 0.00	 0.00
								}
							}
						}
					}
				}
			}
			JOINT RightShoulder
			{
				OFFSET	 0.00	 2.48462964506057	 0.00
				CHANNELS 3 Zrotation Xrotation Yrotation
				JOINT RightUpArm
				{
					OFFSET	 0.00	 1.24881979654096	 0.00
					CHANNELS 3 Zrotation Xrotation Yrotation
					JOINT RightForeArm
					{
						OFFSET	 0.00	2.59758046908119	 0.00
						CHANNELS 3 Zrotation Xrotation Yrotation
						JOINT RightHand
						{
							OFFSET	 0.00	2.45542024364365	 0.00
							CHANNELS 3 Zrotation Xrotation Yrotation
							JOINT RightHandThumb 
							{
								OFFSET	 0.00	0.00	 0.00
								CHANNELS 3 Zrotation Xrotation Yrotation
								End Site
								{
									OFFSET	 0.00	0.00	1.00000003353624
								}
							}
							JOINT R_Wrist_End 
							{
								OFFSET	 0.00	0.99999967115358	 0.00
								CHANNELS 3 Zrotation Xrotation Yrotation
								End Site 
								{
									OFFSET	 0.00	 0.00	 0.00
								}
							}
						}
					}
				}
			}
		}
	}
	JOINT LeftUpLeg
	{
		OFFSET	 1.2719394002717	 0.00	 0.00
		CHANNELS 3 Zrotation Xrotation Yrotation
		JOINT LeftLowLeg
		{
			OFFSET	 0.00	-4.3429100912261	 0.00
			CHANNELS 3 Zrotation Xrotation Yrotation
			JOINT LeftFoot
			{
				OFFSET	 0.00	-4.48767017425826	 0.00
				CHANNELS 3 Zrotation Xrotation Yrotation
				JOINT LeftToeBase
                {
                    OFFSET	 0.00	0.00	 1.51507020887566
                    CHANNELS 3 Zrotation Xrotation Yrotation
                    End Site 
                    {
                        OFFSET	 0.00	0.00	 0.75000010571191
                    }
                }
			}
		}
	}
	JOINT RightUpLeg
	{
		OFFSET	 -1.2719393604653	 0.00	 0.00
		CHANNELS 3 Zrotation Xrotation Yrotation
		JOINT RightLowLeg
		{
			OFFSET	 0.00	-4.3429100912261	 0.00
			CHANNELS 3 Zrotation Xrotation Yrotation
			JOINT RightFoot
			{
				OFFSET	 0.00	-4.48767017425826	 0.00
				CHANNELS 3 Zrotation Xrotation Yrotation
				JOINT RightToeBase
                {
                    OFFSET	 0.00	0.00	 1.51507020887566
                    CHANNELS 3 Zrotation Xrotation Yrotation
                    End Site 
                    {
                        OFFSET	 0.00	0.00	 0.749999965609858
                    }
                }   
			}
		}
	}
}
MOTION 
Frames:	6 
Frame Time: 0.02 
  4.92614990234375 6.412080078125 9.583569946289062 152.086 81.5517 184.205 9.15861 0.0442134 -0.038952 15.1269 25.7913 -0.328433 -13.9992 14.0221 10.2492 3.59781 -54.6191 5.43377 -113.9667 -3.63752 1.38964 -48.8582 11.7407 28.0073 0.0 47.02 0.0 17.0403 -9.46325 3.2322 0.0 0.0 0.0 0.0 0.0 0.0 111.2359 2.94944 -7.8697 31.6019 22.0518 -4.9585 0.0 27.6821 0.0 -23.1656 -5.68192 -0.465563 0.0 0.0 0.0 0.0 0.0 0.0 -10.4925 -10.3078 8.91429 0.0 8.09188 0.0 -2.01862 5.7541 4.38603 0.0 -37.8052 0.0 -16.8272 -28.8328 -30.0763 0.0 31.0186 0.0 17.9463 17.21453 -1.22301 0.0 -29.4676 0.0 
  4.920870056152344 6.405460205078125 9.58302978515625 152.056 81.5884 184.388 9.36786 0.0069101 -0.13181 15.321 25.5655 -0.376042 -14.4868 14.0877 10.4271 3.38948 -54.4143 5.25169 -114.0311 -3.6953 1.41512 -48.8712 11.5746 28.2981 0.0 47.416 0.0 17.0621 -9.4745 3.41697 0.0 0.0 0.0 0.0 0.0 0.0 111.1567 2.8369 -7.49984 31.5774 21.7676 -5.59251 0.0 27.9402 0.0 -23.3167 -6.13047 -0.556516 0.0 0.0 0.0 0.0 0.0 0.0 -10.517 -10.2848 8.53088 0.0 8.2264 0.0 -2.02523 5.67214 4.61822 0.0 -37.811 0.0 -16.8877 -28.7104 -30.2228 0.0 31.1001 0.0 17.9462 17.0301 -1.21689 0.0 -29.3398 0.0 
  4.916960144042969 6.397849731445312 9.583040161132812 152.18 81.6242 184.42 9.68008 -0.0100761 -0.217623 15.4085 25.2415 -0.402593 -15.1663 14.2094 10.7205 3.27546 -54.2972 5.05218 -114.1158 -3.74747 1.4428 -48.783 11.4148 28.727 0.0 47.6771 0.0 17.1284 -9.32607 3.34057 0.0 0.0 0.0 0.0 0.0 0.0 111.0599 2.78323 -7.2188 31.5799 21.5015 -6.35718 0.0 27.921 0.0 -23.6129 -6.21224 -0.498026 0.0 0.0 0.0 0.0 0.0 0.0 -10.5313 -10.2751 8.03885 0.0 8.38813 0.0 -2.05878 5.5746803 4.93749 0.0 -37.825897 0.0 -16.9691 -28.5891 -30.4149 0.0 31.1979 0.0 17.9637 16.94709 -1.14103 0.0 -29.3526 0.0 
  4.9139401245117185 6.389710083007812 9.583259887695313 152.194 81.6209 184.557 9.99681 -0.145523 -0.264682 15.515 25.0668 -0.412794 -15.855 14.2417 10.9644 3.06455 -54.2038 4.68616 -114.171 -3.71733 1.44717 -48.7458 11.3375 29.1438 0.0 47.8639 0.0 17.1019 -9.3995 3.43696 0.0 0.0 0.0 0.0 0.0 0.0 110.8672 2.7321 -6.96319 31.552 21.2504 -7.41275 0.0 27.8569 0.0 -24.1979 -6.5155 -0.0367498 0.0 0.0 0.0 0.0 0.0 0.0 -10.5536 -10.2879 7.77448 0.0 8.52545 0.0 -2.06711 5.5194798 5.03345 0.0 -37.867203 0.0 -17.1238 -28.5142 -30.7096 0.0 31.3393 0.0 17.9789 16.92288 -0.981317 0.0 -29.383701 0.0 
  4.911159973144532 6.379829711914063 9.582999877929687 152.035 81.5892 184.885 10.2864 -0.310841 -0.285066 15.6506 24.79 -0.371043 -16.5426 14.4141 11.1345 2.86705 -54.1817 4.36035 -114.2787 -3.71332 1.59388 -48.6442 11.4373 29.6514 0.0 47.8742 0.0 17.1423 -9.27956 3.6926 0.0 0.0 0.0 0.0 0.0 0.0 110.6351 2.7555 -6.87321 31.5262 20.8696 -8.07057 0.0 27.8149 0.0 -24.6332 -6.68216 0.438449 0.0 0.0 0.0 0.0 0.0 0.0 -10.6051 -10.2668 7.68804 0.0 8.56846 0.0 -2.05497 5.5056295 4.9348 0.0 -37.8496 0.0 -17.3833 -28.459 -31.1747 0.0 31.541 0.0 18.1024 16.96289 -0.672232 0.0 -29.5554 0.0 
  4.908030090332031 6.370869750976563 9.581680297851562 151.721 81.5784 185.318 10.4935 -0.453308 -0.281591 15.8458 24.5111 -0.298502 -17.1424 14.6618 11.2044 2.60596 -54.1173 4.08548 -114.369 -3.71499 1.55115 -48.6558 11.3877 30.1108 0.0 47.8572 0.0 17.0745 -9.18828 4.13562 0.0 0.0 0.0 0.0 0.0 0.0 110.4363 2.74281 -6.96326 31.3217 20.6026 -8.7157 0.0 27.7901 0.0 -25.2708 -6.8452 1.16384 0.0 0.0 0.0 0.0 0.0 0.0 -10.6737 -10.1873 7.5401 0.0 8.53039 0.0 -2.05406 5.49531 4.92491 0.0 -37.9053 0.0 -17.663 -28.455 -31.619 0.0 31.8276 0.0 18.0657 16.99985 -0.404219 0.0 -29.6786 0.0 
